<svg width="174" height="173" viewBox="0 0 174 173" fill="none" xmlns="http://www.w3.org/2000/svg">
<path d="M168.12 86.22C168.185 102.227 163.502 117.893 154.663 131.238C145.824 144.583 133.227 155.008 118.463 161.193C103.7 167.378 87.4337 169.047 71.722 165.987C56.0103 162.928 41.5587 155.278 30.1948 144.005C18.8309 132.732 11.0651 118.342 7.87953 102.656C4.69395 86.969 6.23163 70.69 12.2981 55.8773C18.3646 41.0646 28.6875 28.3836 41.9612 19.4378C55.2349 10.4921 70.8633 5.68342 86.87 5.62" stroke="black" stroke-width="11" stroke-linecap="round" stroke-linejoin="round"/>
<path d="M86.87 5.62006C97.4974 5.57664 108.029 7.62705 117.864 11.6542C127.699 15.6814 136.645 21.6064 144.189 29.091C151.734 36.5755 157.731 45.473 161.837 55.2753C165.943 65.0775 168.078 75.5926 168.12 86.2201" stroke="#4F21FF" stroke-width="11" stroke-linecap="round" stroke-linejoin="round"/>
</svg>
